{
  "accessors": [
    {
      "bufferView": 0,
      "componentType": 5125,
      "count": 42936,
      "type": "SCALAR"
    },
    {
      "bufferView": 1,
      "componentType": 5126,
      "count": 8080,
      "max": [
        -0.011775590173305636,
        0.031178756802830186,
        0.014023548717633172
      ],
      "min": [
        -0.05922491273394738,
        -0.03714523927725127,
        -0.015672897973043755
      ],
      "type": "VEC3"
    },
    {
      "bufferView": 2,
      "componentType": 5126,
      "count": 8080,
      "max": [
        0.99999838875539,
        0.9999957142174858,
        0.9999389194555366
      ],
      "min": [
        -0.9999834830132169,
        -0.9999876677404707,
        -1.0
      ],
      "type": "VEC3"
    },
    {
      "bufferView": 3,
      "componentType": 5126,
      "count": 8080,
      "max": [
        1.0,
        0.7265072272603879
      ],
      "min": [
        0.0,
        0.0
      ],
      "type": "VEC2"
    },
    {
      "bufferView": 4,
      "componentType": 5125,
      "count": 43320,
      "type": "SCALAR"
    },
    {
      "bufferView": 5,
      "componentType": 5126,
      "count": 8192,
      "max": [
        0.041028754929837624,
        0.0391417920740759,
        0.014022606510595413
      ],
      "min": [
        -0.007149283541383306,
        -0.029108276636890064,
        -0.015672897973043755
      ],
      "type": "VEC3"
    },
    {
      "bufferView": 6,
      "componentType": 5126,
      "count": 8192,
      "max": [
        0.9999999873734671,
        0.9999902222241007,
        0.9999012237103191
      ],
      "min": [
        -0.9999897867845836,
        -0.9999902222241005,
        -1.0
      ],
      "type": "VEC3"
    },
    {
      "bufferView": 7,
      "componentType": 5126,
      "count": 8192,
      "max": [
        1.0,
        0.7140401546093941
      ],
      "min": [
        0.0,
        0.0
      ],
      "type": "VEC2"
    },
    {
      "bufferView": 8,
      "componentType": 5125,
      "count": 45240,
      "type": "SCALAR"
    },
    {
      "bufferView": 9,
      "componentType": 5126,
      "count": 8735,
      "max": [
        0.11014828816815622,
        0.033386279361171715,
        0.015672897973043755
      ],
      "min": [
        0.047012711798732815,
        -0.039394531957232054,
        -0.015672897973043755
      ],
      "type": "VEC3"
    },
    {
      "bufferView": 10,
      "componentType": 5126,
      "count": 8735,
      "max": [
        0.9999999988318884,
        0.9999999636228494,
        0.9999731158875209
      ],
      "min": [
        -0.9999953383459034,
        -0.9999993072150025,
        -1.0
      ],
      "type": "VEC3"
    },
    {
      "bufferView": 11,
      "componentType": 5126,
      "count": 8735,
      "max": [
        1.0,
        0.6970294589438406
      ],
      "min": [
        0.0,
        0.0
      ],
      "type": "VEC2"
    },
    {
      "bufferView": 12,
      "componentType": 5125,
      "count": 48942,
      "type": "SCALAR"
    },
    {
      "bufferView": 13,
      "componentType": 5126,
      "count": 9752,
      "max": [
        -0.0661411049030893,
        0.03939453195723206,
        0.0053053690056163
      ],
      "min": [
        -0.11014828816815624,
        -0.02945746968770195,
        -0.015672897973043755
      ],
      "type": "VEC3"
    },
    {
      "bufferView": 14,
      "componentType": 5126,
      "count": 9752,
      "max": [
        0.9999999483233425,
        0.999994970237692,
        1.0
      ],
      "min": [
        -0.9999976587307904,
        -0.99999967118072,
        -1.0
      ],
      "type": "VEC3"
    },
    {
      "bufferView": 15,
      "componentType": 5126,
      "count": 9752,
      "max": [
        0.8967332009209604,
        1.0
      ],
      "min": [
        0.0,
        0.0
      ],
      "type": "VEC2"
    }
  ],
  "asset": {
    "generator": "Adobe Illustrator",
    "version": "2.0"
  },
  "bufferViews": [
    {
      "buffer": 0,
      "byteLength": 171744,
      "target": 34963
    },
    {
      "buffer": 0,
      "byteLength": 96960,
      "byteOffset": 171744,
      "target": 34962
    },
    {
      "buffer": 0,
      "byteLength": 96960,
      "byteOffset": 268704,
      "target": 34962
    },
    {
      "buffer": 0,
      "byteLength": 64640,
      "byteOffset": 365664,
      "target": 34962
    },
    {
      "buffer": 0,
      "byteLength": 173280,
      "byteOffset": 430304,
      "target": 34963
    },
    {
      "buffer": 0,
      "byteLength": 98304,
      "byteOffset": 603584,
      "target": 34962
    },
    {
      "buffer": 0,
      "byteLength": 98304,
      "byteOffset": 701888,
      "target": 34962
    },
    {
      "buffer": 0,
      "byteLength": 65536,
      "byteOffset": 800192,
      "target": 34962
    },
    {
      "buffer": 0,
      "byteLength": 180960,
      "byteOffset": 865728,
      "target": 34963
    },
    {
      "buffer": 0,
      "byteLength": 104820,
      "byteOffset": 1046688,
      "target": 34962
    },
    {
      "buffer": 0,
      "byteLength": 104820,
      "byteOffset": 1151508,
      "target": 34962
    },
    {
      "buffer": 0,
      "byteLength": 69880,
      "byteOffset": 1256328,
      "target": 34962
    },
    {
      "buffer": 0,
      "byteLength": 195768,
      "byteOffset": 1326208,
      "target": 34963
    },
    {
      "buffer": 0,
      "byteLength": 117024,
      "byteOffset": 1521976,
      "target": 34962
    },
    {
      "buffer": 0,
      "byteLength": 117024,
      "byteOffset": 1639000,
      "target": 34962
    },
    {
      "buffer": 0,
      "byteLength": 78016,
      "byteOffset": 1756024,
      "target": 34962
    }
  ],
  "buffers": [
    {
      "byteLength": 1834040,
      "uri": "data:application/octet-stream;base64,"
    }
  ],
  "materials": [
    {
      "doubleSided": true,
      "pbrMetallicRoughness": {
        "baseColorFactor": [
          0.35546875,
          0.32421875,
          0.31640625,
          1.0
        ],
        "metallicFactor": 0.0,
        "roughnessFactor": 0.4000000059604645
      }
    },
    {
      "doubleSided": true,
      "pbrMetallicRoughness": {
        "baseColorFactor": [
          0.35546875,
          0.32421875,
          0.31640625,
          1.0
        ],
        "metallicFactor": 0.0,
        "roughnessFactor": 0.4000000059604645
      }
    },
    {
      "doubleSided": true,
      "pbrMetallicRoughness": {
        "baseColorFactor": [
          0.35546875,
          0.32421875,
          0.31640625,
          1.0
        ],
        "metallicFactor": 0.0,
        "roughnessFactor": 0.4000000059604645
      }
    },
    {
      "doubleSided": true,
      "pbrMetallicRoughness": {
        "baseColorFactor": [
          0.35546875,
          0.32421875,
          0.31640625,
          1.0
        ],
        "metallicFactor": 0.0,
        "roughnessFactor": 0.4000000059604645
      }
    }
  ],
  "meshes": [
    {
      "primitives": [
        {
          "attributes": {
            "NORMAL": 2,
            "POSITION": 1,
            "TEXCOORD_0": 3
          },
          "indices": 0,
          "material": 0,
          "mode": 4
        }
      ]
    },
    {
      "primitives": [
        {
          "attributes": {
            "NORMAL": 6,
            "POSITION": 5,
            "TEXCOORD_0": 7
          },
          "indices": 4,
          "material": 1,
          "mode": 4
        }
      ]
    },
    {
      "primitives": [
        {
          "attributes": {
            "NORMAL": 10,
            "POSITION": 9,
            "TEXCOORD_0": 11
          },
          "indices": 8,
          "material": 2,
          "mode": 4
        }
      ]
    },
    {
      "primitives": [
        {
          "attributes": {
            "NORMAL": 14,
            "POSITION": 13,
            "TEXCOORD_0": 15
          },
          "indices": 12,
          "material": 3,
          "mode": 4
        }
      ]
    }
  ],
  "nodes": [
    {
      "mesh": 0
    },
    {
      "mesh": 1
    },
    {
      "mesh": 2
    },
    {
      "mesh": 3
    }
  ],
  "scenes": [
    {
      "nodes": [
        0,
        1,
        2,
        3
      ]
    }
  ]
}
